<svg xmlns="http://www.w3.org/2000/svg" fill="none" viewBox="0 0 400 400" class="h-20 w-20"><g stroke="#FFF" stroke-linecap="round" stroke-linejoin="round" stroke-opacity="0.9" stroke-width="16"><path d="M91 288c1.676-25.726-.17-52.414 2-78M135 215c-1.625 23.161-2.96 46.959-1.087 70M155.765 217c.976 20.562-1.464 54.84-.561 69M235 222c3.289 22.554-2.248 45.652 2 68M258 227c1.372 19.575-.574 39.576 1 59M293.181 223c-.692 19.371.819 52.226.819 65"></path><path d="M96 235c60.81-1.645 96.673-2 188-2M96 212c60.81-1.645 96.673-2 188-2M96 263c12.106-1.48 26.07-1.178 38 0M261 267.106c11.44-.366 22.785.288 34 .894M86.012 217c-58.977-20.997-11.338 5.788 46.988-60"></path><path d="M134 152.208c37.703 3.774 127.342-1.261 128.193 0 10 14.794 25.38 26.861 40.342 36.703 5.862 3.854 37.701 11.642 39.443 16.802 1.167 3.454-44.026 8.501-48.408 9.287M130.534 151c-5.117-4.949-19.534-3.609-19.534-12.924 0-4.399 8.954-.706 12.874-2.673 12.224-6.136 17.861-15.127 26.779-24.08 1.129-1.134 7.749 4.024 9.179 4.024 20.261 0 41.943 2.03 62.144 0 4.399-.44 8.771-5.347 11.994-5.347 3.202 0 21.429 18.289 30.633 19.61 2.931.419 21.675 3.276 22.256 4.442 2.004 4.025-17.937 12.92-20.481 13.384"></path></g></svg>